<svg version="1.1" id="svg4259" viewBox="0 0 86 57.639" height="57.639" width="86" xmlns="http://www.w3.org/2000/svg">
  <path id="refine_final" class="st0" d="m38.769 8.497 8.136 5.464c1.686 1.132 3.412 2.238 6.386 2.238 4.63 0 8.753 -3.364 8.753 -3.364L42.933 0s-2.085 2.293 -8.629 6.369c-6.871 4.279 -10.475 5.523 -10.475 5.523l24.665 16.577 -1.622 1.061 -7.912 -5.315c-1.677 -1.127 -3.411 -2.238 -6.385 -2.238 -4.629 0 -8.744 3.373 -8.744 3.373l19.111 12.836s2.085 -2.293 8.629 -6.369c6.871 -4.279 10.475 -5.523 10.475 -5.523l-24.897 -16.736Z" style="fill:#de0039;stroke-width:7.98271"/>
  <path class="st1" x="469.254" y="256.218" width="26.746" height="73.222" id="rect6" style="fill: rgb(0, 54, 143); stroke-width: 4.537px;" d="M81.363 44.424H86v12.697h-4.637z"/>
  <path class="st1" points="425.854 329.44 398.053 302.635 398.053 329.44 371.28 329.44 371.28 256.218 398.053 256.218 398.053 282.221 427.944 256.218 462.997 256.218 421.827 291.882 461.749 329.44" id="polygon8" style="fill: rgb(0, 54, 143); stroke-width: 4.537px;" d="m73.838 57.121 -4.821 -4.647v4.647h-4.642v-12.697h4.642v4.51l5.184 -4.51h6.077l-7.138 6.185 6.921 6.512Z"/>
  <path class="st1" d="M55.578 57.608c-6.383 0 -7.148 -2.702 -7.169 -4.733a546.96 546.96 0 0 1 -0.024 -3.846v-4.606h4.441v7.336c0 1.864 0.85 2.697 2.752 2.697s2.754 -0.831 2.754 -2.697v-7.336h4.441v4.606c0 0.621 -0.014 2.706 -0.024 3.846 -0.021 2.031 -0.786 4.733 -7.169 4.733" id="path10" style="fill: rgb(0, 54, 143); stroke-width: 4.537px;"/>
  <path class="st1" points="228.419 274.178 187.471 274.178 187.471 256.218 270.115 256.218 270.115 271.386 227.179 311.399 269.979 311.399 269.979 329.44 186.065 329.44 186.065 314.284" id="polygon12" style="fill: rgb(0, 54, 143); stroke-width: 4.537px;" d="M39.605 47.539h-7.1v-3.115h14.329v2.63l-7.444 6.938h7.422v3.129h-14.549v-2.628Z"/>
  <path class="st1" d="M23.76 57.608c-6.383 0 -7.148 -2.702 -7.169 -4.733a543.52 543.52 0 0 1 -0.024 -3.846v-4.606h4.441v7.336c0 1.864 0.85 2.697 2.754 2.697s2.754 -0.831 2.754 -2.697v-7.336h4.441v4.606c0 0.638 -0.014 2.723 -0.024 3.846 -0.021 2.031 -0.786 4.733 -7.169 4.733" id="path14" style="fill: rgb(0, 54, 143); stroke-width: 4.537px;"/>
  <path class="st1" d="M8.026 57.429C1.385 57.429 0.222 55.367 0 53.115h5.618c0.509 1.503 2.011 1.503 2.508 1.503 0.6 0 1.985 -0.105 1.985 -1.082 0 -0.855 -0.943 -0.948 -2.367 -1.087l-0.587 -0.058c-4.568 -0.485 -6.889 -1.261 -6.889 -4.152 0 -1.259 0.681 -4.188 6.997 -4.188h0.057c4.83 0.014 7.618 1.543 7.668 4.199H9.825c-0.349 -1.259 -1.725 -1.448 -2.523 -1.448 -0.308 0 -1.348 0.038 -1.801 0.528a0.791 0.791 0 0 0 -0.212 0.609c0.041 0.691 1.336 0.841 2.976 1.029q0.507 0.057 1.047 0.126c4.106 0.533 6.103 1.892 6.103 4.157 0 0.975 -0.526 4.159 -7.293 4.178z" id="path16" style="fill: rgb(0, 54, 143); stroke-width: 4.537px;"/>
</svg>
